# xmcd CD database file
#
# Track frame offsets:
#	150
#	17196
#	39352
#	56950
#	72987
#	86074
#	126764
#	137696
#	153514
#	184895
#	197565
#	217967
#	228785
#
# Disc length: 3256 seconds
#
# Revision: 5
# Processed by: cddbd v1.5.1PL0 Copyright (c) Steve Scherf et al.
# Submitted via: CDex 1.51
#
DISCID=b50cb60d
DTITLE=Fleetwood Mac - Then Play On
DYEAR=1970
DGENRE=Blues Rock
TTITLE0=Coming Your Way
TTITLE1=Closing My Eyes
TTITLE2=Show-Biz Blues
TTITLE3=My Dream
TTITLE4=Underway
TTITLE5=Oh Well
TTITLE6=Although The Sun Is Shining
TTITLE7=Rattlesnake Shake
TTITLE8=Searching For Madge
TTITLE9=Fighting For Madge
TTITLE10=When You Say
TTITLE11=Like Crying
TTITLE12=Before The Beginning
EXTD=YEAR: 1970
EXTT0=
EXTT1=
EXTT2=
EXTT3=
EXTT4=
EXTT5=
EXTT6=
EXTT7=
EXTT8=
EXTT9=
EXTT10=
EXTT11=
EXTT12=
PLAYORDER=
